<?xml version="1.0" encoding="utf-8"?>
<!-- Generator: Adobe Illustrator 19.0.0, SVG Export Plug-In . SVG Version: 6.00 Build 0)  -->
<svg version="1.1" id="图层_1" xmlns="http://www.w3.org/2000/svg" xmlns:xlink="http://www.w3.org/1999/xlink" x="0px" y="0px"
	 viewBox="0 0 15 15" style="enable-background:new 0 0 15 15;" xml:space="preserve">
<image style="display:none;overflow:visible;" width="15" height="15" id="XMLID_5_" xlink:href="28BF009C.jpg"  transform="matrix(0.9999 0 0 0.9999 9.376625e-004 9.376625e-004)">
</image>
<g id="XMLID_2_">
	<circle id="XMLID_3_" cx="7.5" cy="5.6" r="0.8"/>
	<path id="XMLID_6_" d="M7.5,0C3.4,0,0,3.4,0,7.5c0,2,0.8,3.9,2.2,5.3c0.3,0.3,0.8,0.3,1.1,0c0.3-0.3,0.3-0.8,0-1.1
		c-1.1-1.1-1.8-2.6-1.8-4.2c0-3.3,2.7-6,6-6s6,2.7,6,6c0,2.5-1.6,4.8-4,5.6c-0.4,0.2-0.8,0.2-1,0.1c-0.2-0.1-0.3-0.5-0.3-1
		c0-1.5,0-3.4,0-3.4l0,0c0-0.4-0.3-0.7-0.7-0.7c-0.4,0-0.7,0.3-0.7,0.7c0,0,0,0,0,0l0,0c0,0,0,1.8,0,3.4c0,1,0.3,1.8,0.9,2.2
		c0.3,0.2,0.7,0.3,1.1,0.3c0.4,0,0.8-0.1,1.2-0.2c3-1.1,4.9-3.9,4.9-7C15,3.4,11.6,0,7.5,0z"/>
</g>
</svg>
