<?xml version="1.0" encoding="utf-8"?>
<!-- Generator: Adobe Illustrator 19.0.0, SVG Export Plug-In . SVG Version: 6.00 Build 0)  -->
<svg version="1.1" id="图层_1" xmlns="http://www.w3.org/2000/svg" xmlns:xlink="http://www.w3.org/1999/xlink" x="0px" y="0px"
	 viewBox="0 0 7 13" style="enable-background:new 0 0 7 13;" xml:space="preserve">
<style type="text/css">
	.st0{fill-rule:evenodd;clip-rule:evenodd;fill:#040000;}
</style>
<g id="XMLID_2_">
	<g id="XMLID_14_">
		<path id="XMLID_15_" class="st0" d="M1.2,6.5l5.7-5.7c0.2-0.2,0.2-0.5,0-0.7C6.7,0,6.4,0,6.2,0.1L0.3,6.1c0,0-0.1,0-0.1,0.1
			C0,6.2,0,6.4,0,6.5c0,0.1,0,0.3,0.1,0.4c0,0,0.1,0.1,0.1,0.1l5.9,5.9c0.2,0.2,0.5,0.2,0.7,0c0.2-0.2,0.2-0.5,0-0.7L1.2,6.5z"/>
	</g>
</g>
</svg>
