<?xml version="1.0" encoding="utf-8"?>
<!-- Generator: Adobe Illustrator 19.0.0, SVG Export Plug-In . SVG Version: 6.00 Build 0)  -->
<svg version="1.1" id="图层_1" xmlns="http://www.w3.org/2000/svg" xmlns:xlink="http://www.w3.org/1999/xlink" x="0px" y="0px"
	 viewBox="-4.1 9 7.1 13" style="enable-background:new -4.1 9 7.1 13;" xml:space="preserve">
<style type="text/css">
	.st0{fill-rule:evenodd;clip-rule:evenodd;fill:#060001;}
</style>
<g id="XMLID_2_">
	<g id="XMLID_22_">
	</g>
</g>
<g>
	<g>
		<path class="st0" d="M2.8,15.1c0,0-0.1-0.1-0.1-0.1l-5.9-5.9C-3.4,9-3.7,9-3.9,9.1c-0.2,0.2-0.2,0.5,0,0.7l5.7,5.7l-5.7,5.7
			c-0.2,0.2-0.2,0.5,0,0.7c0.2,0.2,0.5,0.2,0.7,0l5.9-5.9c0,0,0.1,0,0.1-0.1C2.9,15.8,3,15.6,3,15.5C3,15.4,2.9,15.2,2.8,15.1z"/>
	</g>
</g>
</svg>
