<svg id="图层_1" data-name="图层 1" xmlns="http://www.w3.org/2000/svg" viewBox="0 0 24.25 16.44"><defs><style>.cls-1{fill:#fdc900;}</style></defs><title>箭头</title><g id="正文页apk通栏入口1201"><g id="箭头-copy-3"><path id="Path-2" class="cls-1" d="M7.26,8.34.71,1.81A1,1,0,1,1,2.12.4L9.37,7.61a1,1,0,0,1,0,1.4l-7,7.22A1,1,0,0,1,.95,14.85Z" transform="translate(-0.42 -0.1)"/><path id="Path-2-2" data-name="Path-2" class="cls-1" d="M8.71,1.81A1,1,0,1,1,10.12.4l7.25,7.22a1,1,0,0,1,0,1.4l-7,7.22a1,1,0,0,1-1.44-1.39l6.31-6.51Z" transform="translate(-0.42 -0.1)"/><path id="Path-2-3" data-name="Path-2" class="cls-1" d="M22.26,8.34,15.71,1.81A1,1,0,1,1,17.12.4l7.25,7.22a1,1,0,0,1,0,1.4l-7,7.22a1,1,0,0,1-1.44-1.39Z" transform="translate(-0.42 -0.1)"/></g></g></svg>