<?xml version="1.0" encoding="utf-8"?>
<!-- Generator: Adobe Illustrator 19.0.0, SVG Export Plug-In . SVG Version: 6.00 Build 0)  -->
<svg version="1.1" id="图层_1" xmlns="http://www.w3.org/2000/svg" xmlns:xlink="http://www.w3.org/1999/xlink" x="0px" y="0px"
	 viewBox="0 0 80 80" style="enable-background:new 0 0 80 80;" xml:space="preserve">
<style type="text/css">
	.st0{fill-rule:evenodd;clip-rule:evenodd;}
</style>
<g id="XMLID_6_">
	<g id="XMLID_24_">
		<path id="XMLID_25_" class="st0" d="M43.6,40L79.3,4.3c1-1,1-2.6,0-3.6c-1-1-2.6-1-3.6,0L40,36.4L4.3,0.7c-1-1-2.6-1-3.6,0
			c-1,1-1,2.6,0,3.6L36.4,40L0.7,75.7c-1,1-1,2.6,0,3.6c1,1,2.6,1,3.6,0L40,43.6l35.7,35.7c1,1,2.6,1,3.6,0c1-1,1-2.6,0-3.6L43.6,40
			z"/>
	</g>
</g>
</svg>
