<?xml version="1.0" encoding="utf-8"?>
<!-- Generator: Adobe Illustrator 19.0.0, SVG Export Plug-In . SVG Version: 6.00 Build 0)  -->
<svg version="1.1" id="图层_1" xmlns="http://www.w3.org/2000/svg" xmlns:xlink="http://www.w3.org/1999/xlink" x="0px" y="0px"
	 viewBox="0 0 13 11" style="enable-background:new 0 0 13 11;" xml:space="preserve">
<style type="text/css">
	.st0{fill-rule:evenodd;clip-rule:evenodd;fill:#040000;}
</style>
<g id="XMLID_2_">
	<g id="XMLID_64_">
		<path id="XMLID_65_" class="st0" d="M6.5,4.7C6.1,4.7,5.8,5,5.8,5.4c0,0.4,0.3,0.7,0.7,0.7c0.4,0,0.7-0.3,0.7-0.7
			C7.2,5,6.9,4.7,6.5,4.7z M3.6,4.7C3.2,4.7,2.9,5,2.9,5.4c0,0.4,0.3,0.7,0.7,0.7c0.4,0,0.7-0.3,0.7-0.7C4.3,5,4,4.7,3.6,4.7z
			 M6.5,0C2.9,0,0,2.4,0,5.3c0,0.9,0.4,2.1,0.8,2.8C0.6,10,0.6,11,0.6,11s1,0.2,3.3-0.8c0.9,0.4,1.6,0.5,2.6,0.5
			c3.6,0,6.5-2.4,6.5-5.3C13,2.4,10.1,0,6.5,0z M6.5,9.7c-0.8,0-1.9-0.2-2.6-0.5C2,10,1.7,10,1.7,10s0-0.8,0.2-2.3
			C1.5,7.1,1.2,6.1,1.2,5.4C1.2,3,3.6,1,6.5,1s5.3,2,5.3,4.4C11.8,7.8,9.4,9.7,6.5,9.7z M9.4,4.7C9,4.7,8.7,5,8.7,5.4
			c0,0.4,0.3,0.7,0.7,0.7c0.4,0,0.7-0.3,0.7-0.7C10.1,5,9.8,4.7,9.4,4.7z"/>
	</g>
</g>
</svg>
