<?xml version="1.0" encoding="UTF-8" standalone="no"?>
<svg width="80px" height="80px" viewBox="0 0 80 80" version="1.1" xmlns="http://www.w3.org/2000/svg" xmlns:xlink="http://www.w3.org/1999/xlink">
    <!-- Generator: Sketch 39.1 (31720) - http://www.bohemiancoding.com/sketch -->
    <title>评论回复</title>
    <desc>Created with Sketch.</desc>
    <defs></defs>
    <g id="首页、正文页icon">
        <g id="评论回复" fill-rule="evenodd" clip-rule="evenodd">
            <g id="Group-8" transform="translate(5.000000, 13.000000)">
                <path d="M15.8786985,53.3135261 L15.0789787,58.4332749 C14.4253979,62.6174672 17.682573,64.698109 21.237723,62.4003218 L35.5766611,53.132688 C37.4443531,51.9255505 40.9684947,50.8863756 43.1847883,50.8863756 L63.235049,50.8863756 C66.8897521,50.8863756 69.8466909,47.9516834 69.8466909,44.3064761 L69.8466909,6.70493007 C69.8466909,3.0766546 66.877811,0.125030525 63.2467802,0.125030525 L6.71585269,0.125030525 C3.0665731,0.125030525 0.115942029,3.06079141 0.115942029,6.70493007 L0.115942029,44.3064761 C0.115942029,47.9506878 3.06774776,50.8863756 6.74655148,50.8863756 L13.7741812,50.8863756 C15.2131671,50.8863756 16.0980652,51.9091531 15.8786985,53.3135261 Z M6.74655148,47.0729446 C5.17898766,47.0729446 3.94202899,45.8427402 3.94202899,44.3064761 L3.94202899,6.70493007 C3.94202899,5.16837725 5.17817446,3.93846154 6.71585269,3.93846154 L63.2467802,3.93846154 C64.7668734,3.93846154 66.0206039,5.18490512 66.0206039,6.70493007 L66.0206039,44.3064761 C66.0206039,45.8419568 64.7802845,47.0729446 63.235049,47.0729446 L43.1847883,47.0729446 C40.229682,47.0729446 35.9825246,48.3253175 33.4949398,49.9331077 L19.156001,59.2007419 C18.3656421,59.7115717 18.7164771,59.9356806 18.8595233,59.0199057 L19.659243,53.9001575 C20.2407298,50.1775137 17.5546838,47.0729446 13.7741812,47.0729446 L6.74655148,47.0729446 Z" id="Path"></path>
                <g id="Group-9" transform="translate(14.003221, 22.917343)">
                    <path d="M2.9935588,5.96731335 C4.64685492,5.96731335 5.98711755,4.63148399 5.98711755,2.98365665 C5.98711755,1.33582931 4.64685492,0 2.9935588,0 C1.34026268,0 0,1.33582931 0,2.98365665 C0,4.63148399 1.34026268,5.96731335 2.9935588,5.96731335 L2.9935588,5.96731335 Z" id="Path"></path>
                    <path d="M20.9549115,5.96731335 C22.6082076,5.96731335 23.9484702,4.63148399 23.9484702,2.98365665 C23.9484702,1.33582931 22.6082076,0 20.9549115,0 C19.3016153,0 17.9613527,1.33582931 17.9613527,2.98365665 C17.9613527,4.63148399 19.3016153,5.96731335 20.9549115,5.96731335 L20.9549115,5.96731335 Z" id="Path"></path>
                    <path d="M38.9162641,5.96731335 C40.5695602,5.96731335 41.9098229,4.63148399 41.9098229,2.98365665 C41.9098229,1.33582931 40.5695602,0 38.9162641,0 C37.262968,0 35.9227053,1.33582931 35.9227053,2.98365665 C35.9227053,4.63148399 37.262968,5.96731335 38.9162641,5.96731335 L38.9162641,5.96731335 Z" id="Path"></path>
                </g>
            </g>
        </g>
    </g>
</svg>