<svg fill="#656565" id="图层_1" data-name="图层 1" xmlns="http://www.w3.org/2000/svg" viewBox="0 0 24 24"><title>图标svg</title><circle cx="5.95" cy="10" r="1.5"/><circle cx="12.03" cy="10" r="1.5"/><circle cx="18.1" cy="10" r="1.5"/><path d="M21,1.25H2.75A2.75,2.75,0,0,0,0,4V16a2.75,2.75,0,0,0,2.75,2.75h2L4.26,21.9a.75.75,0,0,0,1.1.77l7.33-3.91H21A2.75,2.75,0,0,0,23.75,16V4A2.75,2.75,0,0,0,21,1.25ZM22.25,16A1.25,1.25,0,0,1,21,17.25H12.5a.75.75,0,0,0-.35.09l-6.2,3.31.36-2.54a.75.75,0,0,0-.74-.85H2.75A1.25,1.25,0,0,1,1.5,16V4A1.25,1.25,0,0,1,2.75,2.75H21A1.25,1.25,0,0,1,22.25,4Z"/></svg>