<?xml version="1.0" encoding="utf-8"?>
<!-- Generator: Adobe Illustrator 19.0.0, SVG Export Plug-In . SVG Version: 6.00 Build 0)  -->
<svg version="1.1" id="图层_1" xmlns="http://www.w3.org/2000/svg" xmlns:xlink="http://www.w3.org/1999/xlink" x="0px" y="0px"
	 viewBox="0 0 30 31" style="enable-background:new 0 0 30 31;" xml:space="preserve">
<style type="text/css">
	.st0{fill-rule:evenodd;clip-rule:evenodd;fill:#040000;}
</style>
<path id="XMLID_2_" class="st0" d="M29.7,6.1l-13,13H11v-5.7l13-13C24.2,0.1,24.5,0,24.8,0c0.3,0,0.6,0.1,0.8,0.3l4.1,4.1
	C29.9,4.7,30,5,30,5.2C30,5.5,29.9,5.8,29.7,6.1z M25,3.3L13,15.2V17h1.8L26.7,5L25,3.3z M3,7v17h14.5l3.5,2.7V24h5v-9l3-3v13.2
	c0,1-0.8,1.8-1.8,1.8H24v2.2c0,1-0.8,1.8-1.8,1.8h-0.9L16,27H1.8c-1,0-1.8-0.8-1.8-1.8V5.8C0,4.8,0.8,4,1.8,4H15l-3,3L3,7z"/>
</svg>
