<?xml version="1.0" encoding="UTF-8"?>
<svg width="23px" height="17px" viewBox="0 0 23 17" version="1.1" xmlns="http://www.w3.org/2000/svg" xmlns:xlink="http://www.w3.org/1999/xlink">
    <!-- Generator: Sketch 39.1 (31720) - http://www.bohemiancoding.com/sketch -->
    <title>Group 4</title>
    <desc>Created with Sketch.</desc>
    <defs></defs>
    <g id="Page-1" stroke="none" stroke-width="1" fill="none" fill-rule="evenodd">
        <g id="图标" transform="translate(-231.000000, -141.000000)" fill="#333333">
            <g id="Group-4" transform="translate(231.000000, 141.000000)">
                <path d="M2.99456145,1.5 L20.0054385,1.5 C20.8303971,1.5 21.5,2.16907525 21.5,2.99188419 L21.5,14.0081158 C21.5,14.8283334 20.8252533,15.5 20.0054385,15.5 L2.99456145,15.5 C2.16960292,15.5 1.5,14.8309248 1.5,14.0081158 L1.5,2.99188419 C1.5,2.17166656 2.17474672,1.5 2.99456145,1.5 Z M0.5,14.0081158 C0.5,15.3833861 1.61749458,16.5 2.99456145,16.5 L20.0054385,16.5 C21.3765164,16.5 22.5,15.381645 22.5,14.0081158 L22.5,2.99188419 C22.5,1.61661394 21.3825054,0.5 20.0054385,0.5 L2.99456145,0.5 C1.62348359,0.5 0.5,1.618355 0.5,2.99188419 L0.5,14.0081158 Z" id="Rectangle-2"></path>
                <path d="M11.3201584,10.8047524 L11.9355425,10.8010502 L1.30532109,2.60404668 C1.08664211,2.4354225 0.772670861,2.47599993 0.604046679,2.69467891 C0.435422498,2.91335789 0.47599993,3.22732914 0.694678911,3.39595332 L11.3249003,11.5929569 C11.5065841,11.7330539 11.7602993,11.7315275 11.9402843,11.5892547 L22.3100631,3.39225068 C22.5266974,3.22100764 22.5634943,2.90657091 22.3922513,2.68993658 C22.2210082,2.47330225 21.9065715,2.43650534 21.6899372,2.60774838 L11.3201584,10.8047524 Z" id="Rectangle-3"></path>
                <path d="M15.4417524,9.7922483 C15.2298926,9.61513235 14.9145655,9.64329777 14.7374496,9.85515752 C14.5603336,10.0670173 14.5884991,10.3823444 14.8003588,10.5594603 L19.0057092,14.075157 C19.217569,14.2522729 19.5328961,14.2241075 19.710012,14.0122478 C19.887128,13.800388 19.8589625,13.4850609 19.6471028,13.307945 L15.4417524,9.7922483 Z M3.7768306,13.2092281 C3.56501213,13.3863934 3.5369202,13.7017271 3.71408551,13.9135456 C3.89125082,14.125364 4.20658448,14.153456 4.41840295,13.9762906 L8.43237685,10.6189963 C8.64419532,10.441831 8.67228726,10.1264974 8.49512194,9.91467891 C8.31795663,9.70286044 8.00262298,9.6747685 7.79080451,9.85193382 L3.7768306,13.2092281 Z" id="Rectangle-3"></path>
            </g>
        </g>
    </g>
</svg>