<?xml version="1.0" encoding="utf-8"?>
<!-- Generator: Adobe Illustrator 15.0.0, SVG Export Plug-In . SVG Version: 6.00 Build 0)  -->
<!DOCTYPE svg PUBLIC "-//W3C//DTD SVG 1.1//EN" "http://www.w3.org/Graphics/SVG/1.1/DTD/svg11.dtd">
<svg version="1.1" id="图层_1" xmlns="http://www.w3.org/2000/svg" xmlns:xlink="http://www.w3.org/1999/xlink" x="0px" y="0px"
	 width="18px" height="18px" viewBox="0 0 18 18" enable-background="new 0 0 18 18" xml:space="preserve">
<path d="M5.448,18.021c-1.198-2.494-0.56-3.924,0.361-5.27c1.009-1.477,1.27-2.936,1.27-2.936
	s0.793,1.03,0.476,2.645c1.4-1.561,1.666-4.046,1.454-5c3.168,2.214,4.521,7.007,2.697,10.562
	c9.705-5.492,2.414-13.708,1.145-14.633c0.422,0.925,0.503,2.492-0.352,3.253c-1.447-5.487-5.025-6.611-5.025-6.611
	c0.423,2.829-1.533,5.923-3.42,8.236C3.987,7.141,3.917,6.361,3.324,5.281C3.191,7.332,1.625,9.003,1.2,11.055
	c-0.575,2.781,0.431,4.818,4.248,6.969L5.448,18.021z"/>
</svg>
