<?xml version="1.0" encoding="UTF-8" standalone="no"?>
<svg width="80px" height="80px" viewBox="0 0 80 80" version="1.1" xmlns="http://www.w3.org/2000/svg" xmlns:xlink="http://www.w3.org/1999/xlink">
    <!-- Generator: Sketch 39.1 (31720) - http://www.bohemiancoding.com/sketch -->
    <title>心</title>
    <desc>Created with Sketch.</desc>
    <defs></defs>
    <g id="首页、正文页icon">
        <g id="心" fill-rule="evenodd" clip-rule="evenodd">
            <path d="M15.509363,49.0864833 C11.2996168,45.2429208 7.83183618,37.931772 7.83183618,32.9838968 C7.83183618,22.2989883 15.5917978,13.6797101 25.0225838,13.6797101 C29.9721413,13.6797101 34.9714025,17.5756048 38.6529489,23.5872928 L40.2646043,26.2190047 L41.8762597,23.5872928 C45.55851,17.5744553 50.5558302,13.6797101 55.5066248,13.6797101 C64.9374108,13.6797101 72.6973724,22.2989882 72.6973724,32.9838968 C72.6973724,37.942321 69.2136296,45.2671571 64.982853,49.1201739 C59.1446333,56.6020297 41.8248364,71.3202899 40.3298831,71.3202899 C38.9094407,71.3202899 21.2379126,56.4049427 15.7266717,49.3216142 L15.509363,49.0864833 Z M12.7435544,51.6426527 C18.9787812,59.656485 37.2760764,75.1 40.3298831,75.1 C43.4661455,75.1 61.4033955,59.8570319 67.7486989,51.6756359 C72.518705,47.3694394 76.4770826,39.0466474 76.4770826,32.9838968 C76.4770826,20.2948641 67.1185555,9.9 55.5066248,9.9 C48.9749716,9.9 42.9510778,14.5948225 38.6529489,21.6133434 L41.8762597,21.6133434 C37.5788307,14.5959655 31.5529085,9.9 25.0225838,9.9 C13.4106531,9.9 4.05212603,20.2948642 4.05212603,32.9838968 C4.05212603,39.0337841 7.9927402,47.3418115 12.9608631,51.8777836 L12.7435544,51.6426527 Z" id="Shape"></path>
        </g>
    </g>
</svg>