<svg id="图层_1" data-name="图层 1" xmlns="http://www.w3.org/2000/svg" viewBox="0 0 23.7 16"><title>播放icon</title><path d="M23.68,6.06a.5.5,0,0,0-.51,0L19.75,8.31V6.5A2.5,2.5,0,0,0,17.25,4H2.75A2.5,2.5,0,0,0,.25,6.5v11A2.5,2.5,0,0,0,2.75,20h14.5a2.5,2.5,0,0,0,2.5-2.5V15.69l3.42,2.23a.5.5,0,0,0,.77-.42V6.5A.5.5,0,0,0,23.68,6.06ZM18.75,9.23V17.5a1.5,1.5,0,0,1-1.5,1.5H2.75a1.5,1.5,0,0,1-1.5-1.5V6.5A1.5,1.5,0,0,1,2.75,5h14.5a1.5,1.5,0,0,1,1.5,1.5Zm4.2,7.34-3.2-2.08v-5l3.2-2.08Z" transform="translate(-0.25 -4)"/></svg>