<?xml version="1.0" encoding="utf-8"?>
<!-- Generator: Adobe Illustrator 21.0.0, SVG Export Plug-In . SVG Version: 6.00 Build 0)  -->
<svg version="1.1" id="图层_1" xmlns="http://www.w3.org/2000/svg" xmlns:xlink="http://www.w3.org/1999/xlink" x="0px" y="0px"
	 viewBox="0 0 24 24" style="enable-background:new 0 0 24 24;" xml:space="preserve">
<path d="M12,24C5.4,24,0,18.6,0,12S5.3,0,12,0c2.9,0,5.8,1.1,8,3c0.4,0.4,0.4,1,0,1.4c-0.4,0.4-0.9,0.4-1.3,0.1
	C14.5,0.9,8.1,1.3,4.5,5.4S1.3,15.9,5.4,19.5s10.5,3.2,14.1-0.9c2.3-2.6,3-6.1,2.1-9.4c-0.2-0.5,0.1-1.1,0.7-1.2s1.1,0.1,1.2,0.7
	c1.9,6.4-1.8,13-8.2,14.9C14.3,23.8,13.1,24,12,24z"/>
</svg>
