<?xml version="1.0" encoding="UTF-8" standalone="no"?>
<svg width="80px" height="80px" viewBox="0 0 80 80" version="1.1" xmlns="http://www.w3.org/2000/svg" xmlns:xlink="http://www.w3.org/1999/xlink">
    <!-- Generator: Sketch 39.1 (31720) - http://www.bohemiancoding.com/sketch -->
    <title>80 - Spotlight</title>
    <desc>Created with Sketch.</desc>
    <defs></defs>
    <g id="首页、正文页icon" stroke="none" stroke-width="1" fill="none" fill-rule="evenodd">
        <g id="80---Spotlight" fill="#999999">
            <g id="Group" transform="translate(2.000000, 3.000000)">
                <path d="M72.3529412,37.5 C72.3529412,18.2512521 56.7487479,2.64705882 37.5,2.64705882 C18.2512521,2.64705882 2.64705882,18.2512521 2.64705882,37.5 C2.64705882,56.7487479 18.2512521,72.3529412 37.5,72.3529412 C56.7487479,72.3529412 72.3529412,56.7487479 72.3529412,37.5 Z M0,37.5 C0,16.7893219 16.7893219,0 37.5,0 C58.2106781,0 75,16.7893219 75,37.5 C75,58.2106781 58.2106781,75 37.5,75 C16.7893219,75 0,58.2106781 0,37.5 Z" id="Oval-1"></path>
                <path d="M18.2911907,36.3285327 C17.2737735,36.7939452 17.515827,38.3036481 18.6277478,38.4276598 L34.5961967,40.2086089 L33.6239064,39.2483168 L35.6574158,55.6319562 C35.7942556,56.7344515 37.2910938,56.9658086 37.7544078,55.9560754 L53.0857829,22.543318 C53.5121514,21.6141027 52.5542331,20.6550731 51.6245241,21.0803638 L18.2911907,36.3285327 Z" id="Path-1"></path>
            </g>
        </g>
    </g>
</svg>