<?xml version="1.0" encoding="utf-8"?>
<!-- Generator: Adobe Illustrator 19.0.0, SVG Export Plug-In . SVG Version: 6.00 Build 0)  -->
<svg version="1.1" id="图层_1" xmlns="http://www.w3.org/2000/svg" xmlns:xlink="http://www.w3.org/1999/xlink" x="0px" y="0px"
	 viewBox="0 0 58.5 80" style="enable-background:new 0 0 58.5 80;" xml:space="preserve">
<style type="text/css">
	.st0{fill-rule:evenodd;clip-rule:evenodd;}
</style>
<path id="XMLID_2_" class="st0" d="M53.8,46.3L34.3,77.1c-1.1,1.7-3,2.9-5.1,2.9c-2.1,0-4-1.1-5.1-2.9L4.7,46.3C1.7,41.6,0,36,0,30
	C0,13.4,13.1,0,29.2,0c16.1,0,29.2,13.4,29.2,30C58.5,36,56.7,41.6,53.8,46.3z M29.2,7.5C17.1,7.5,7.3,17.6,7.3,30
	c0,4.3,1.2,8.6,3.5,12.2l18.4,29.3l18.4-29.3c2.3-3.6,3.5-7.8,3.5-12.2C51.1,17.6,41.3,7.5,29.2,7.5z M29.2,42.5
	C22.5,42.5,17,36.9,17,30c0-6.9,5.5-12.5,12.2-12.5c6.7,0,12.2,5.6,12.2,12.5C41.4,36.9,36,42.5,29.2,42.5z M29.2,25
	c-2.7,0-4.9,2.2-4.9,5c0,2.8,2.2,5,4.9,5c2.7,0,4.9-2.2,4.9-5C34.1,27.3,31.9,25,29.2,25z"/>
</svg>
