<?xml version="1.0" encoding="utf-8"?>
<!-- Generator: Adobe Illustrator 15.0.0, SVG Export Plug-In . SVG Version: 6.00 Build 0)  -->
<!DOCTYPE svg PUBLIC "-//W3C//DTD SVG 1.1//EN" "http://www.w3.org/Graphics/SVG/1.1/DTD/svg11.dtd">
<svg version="1.1" id="图层_1" xmlns="http://www.w3.org/2000/svg" xmlns:xlink="http://www.w3.org/1999/xlink" x="0px" y="0px"
	 width="18px" height="18px" viewBox="0 0 18 18" enable-background="new 0 0 18 18" xml:space="preserve">
<g>
	<g>
		<path fill-rule="evenodd" clip-rule="evenodd" d="M1.727,7.627c-0.989,0-1.636,0.803-1.636,1.792
			c0,0.989,0.647,1.792,1.636,1.792c0.99,0,1.792-0.803,1.792-1.792C3.52,8.43,2.717,7.627,1.727,7.627z M8.896,7.627
			c-0.989,0-1.792,0.803-1.792,1.792c0,0.989,0.803,1.792,1.792,1.792s1.791-0.803,1.791-1.792C10.687,8.43,9.885,7.627,8.896,7.627
			z M16.063,7.627c-0.987,0-1.79,0.803-1.79,1.792c0,0.989,0.803,1.792,1.79,1.792c0.99,0,1.793-0.803,1.793-1.792
			C17.855,8.43,17.053,7.627,16.063,7.627z"/>
	</g>
</g>
</svg>
