<?xml version="1.0" encoding="utf-8"?>
<!-- Generator: Adobe Illustrator 19.0.0, SVG Export Plug-In . SVG Version: 6.00 Build 0)  -->
<svg version="1.1" id="图层_1" xmlns="http://www.w3.org/2000/svg" xmlns:xlink="http://www.w3.org/1999/xlink" x="0px" y="0px"
	 viewBox="0 0 80 80" style="enable-background:new 0 0 80 80;" xml:space="preserve">
<style type="text/css">
	.st0{fill-rule:evenodd;clip-rule:evenodd;}
</style>
<g id="XMLID_2_">
	<g id="XMLID_43_">
		<path id="XMLID_44_" class="st0" d="M6.1,33.8C2.8,33.8,0,36.6,0,40c0,3.4,2.8,6.2,6.1,6.2s6.1-2.8,6.1-6.2
			C12.3,36.6,9.5,33.8,6.1,33.8z M40,33.8c-3.4,0-6.1,2.8-6.1,6.2c0,3.4,2.8,6.2,6.1,6.2s6.1-2.8,6.1-6.2
			C46.1,36.6,43.4,33.8,40,33.8z M73.9,33.8c-3.4,0-6.1,2.8-6.1,6.2c0,3.4,2.8,6.2,6.1,6.2S80,43.4,80,40
			C80,36.6,77.2,33.8,73.9,33.8z"/>
	</g>
</g>
</svg>
