<?xml version="1.0" encoding="utf-8"?>
<!-- Generator: Adobe Illustrator 19.0.0, SVG Export Plug-In . SVG Version: 6.00 Build 0)  -->
<svg version="1.1" id="图层_1" xmlns="http://www.w3.org/2000/svg" xmlns:xlink="http://www.w3.org/1999/xlink" x="0px" y="0px"
	 viewBox="0 0 80 65.9" style="enable-background:new 0 0 80 65.9;" xml:space="preserve">
<style type="text/css">
	.st0{fill-rule:evenodd;clip-rule:evenodd;}
</style>
<g id="XMLID_2_">
	<g id="XMLID_62_">
		<path id="XMLID_63_" class="st0" d="M57.9,31.2c-2-1.2-26.1-14.7-27.3-15.4c-1.5-0.8-3,0.2-3,1.7v30.9c0,1.6,1.7,2.4,3,1.7
			c1.7-0.9,25.8-14.6,27.3-15.5C59.2,33.8,59.2,32,57.9,31.2z M50.1,34c-0.9,0.6-14.5,7.9-15.5,8.4c-0.8,0.4-1.8,0-1.8-0.9V24.3
			c0-0.8,0.9-1.4,1.8-0.9c0.7,0.4,14.2,7.6,15.5,8.4C51,32.3,50.9,33.5,50.1,34z M73,0H7C3.1,0,0,3.1,0,7v52c0,3.8,3.1,7,7,7H73
			c3.8,0,7-3.1,7-7V7C80,3.1,76.9,0,73,0z M74.8,54.8c0,3.3-2.7,5.9-5.9,5.9H10.9c-3.3,0-5.9-2.7-5.9-5.9V11.1
			c0-3.3,2.7-5.9,5.9-5.9h57.9c3.3,0,5.9,2.7,5.9,5.9V54.8z"/>
	</g>
</g>
</svg>
