<svg id="图层_1" data-name="图层 1" xmlns="http://www.w3.org/2000/svg" viewBox="0 0 24 24"><title>ic_list的副本 4</title><path d="M22.57,9s0,0,0-.06A11.05,11.05,0,0,0,12,1,10.92,10.92,0,0,0,5.57,3.07a11.07,11.07,0,0,0-4.44,7.19A1,1,0,0,0,2,11.41h.16a1,1,0,0,0,1-.84A9.05,9.05,0,0,1,6.74,4.7,8.94,8.94,0,0,1,12,3a9.05,9.05,0,0,1,7.93,4.76l-2.08-.52a1,1,0,0,0-.48,1.94l4,1h.24a1,1,0,0,0,.25,0h0a1,1,0,0,0,.58-.46l0-.07a1,1,0,0,0,.08-.18s0-.05,0-.08a1.51,1.51,0,0,0,0-.39Z"/><path d="M21.74,12h-.16a1,1,0,0,0-1,.84A9.05,9.05,0,0,1,17,18.73a8.94,8.94,0,0,1-5.26,1.7,9.05,9.05,0,0,1-7.93-4.76l2.08.52a1,1,0,0,0,.48-1.94l-4-1H2.1a1,1,0,0,0-.25,0h0a1,1,0,0,0-.58.46l0,.07a1,1,0,0,0-.08.18s0,.05,0,.08a1.51,1.51,0,0,0,0,.39s0,0,0,.06a11.05,11.05,0,0,0,10.56,7.92,10.92,10.92,0,0,0,6.43-2.07,11.07,11.07,0,0,0,4.44-7.19A1,1,0,0,0,21.74,12Z"/></svg>