<?xml version="1.0" encoding="UTF-8"?>
<svg width="14px" height="14px" viewBox="0 0 14 14" version="1.1" xmlns="http://www.w3.org/2000/svg" xmlns:xlink="http://www.w3.org/1999/xlink">
    <!-- Generator: Sketch 48.2 (47327) - http://www.bohemiancoding.com/sketch -->
    <title>删  除 copy</title>
    <desc>Created with Sketch.</desc>
    <defs></defs>
    <g id="Artboard" stroke="none" stroke-width="1" fill="none" fill-rule="evenodd" transform="translate(-469.000000, -124.000000)">
        <g id="Group-3" transform="translate(343.000000, 73.000000)" fill="#BABABA" fill-rule="nonzero">
            <g id="删--除-copy" transform="translate(126.000000, 51.000000)">
                <path d="M7,0 C3.12666667,0 0,3.12666667 0,7 C0,10.8733333 3.12666667,14 7,14 C10.8733333,14 14,10.8733333 14,7 C14,3.12666667 10.8733333,0 7,0 Z M9.94,9.94 C9.75333333,10.1266667 9.42666667,10.1266667 9.24,9.94 L7,7.7 L4.76,9.94 C4.57333333,10.1266667 4.24666667,10.1266667 4.06,9.94 C3.87333333,9.75333333 3.87333333,9.42666667 4.06,9.24 L6.3,7 L4.06,4.76 C3.87333333,4.57333333 3.87333333,4.24666667 4.06,4.06 C4.24666667,3.87333333 4.57333333,3.87333333 4.76,4.06 L7,6.3 L9.24,4.06 C9.42666667,3.87333333 9.75333333,3.87333333 9.94,4.06 C10.1266667,4.24666667 10.1266667,4.57333333 9.94,4.76 L7.7,7 L9.94,9.24 C10.1733333,9.42666667 10.1733333,9.75333333 9.94,9.94 Z" id="Shape"></path>
            </g>
        </g>
    </g>
</svg>