<?xml version="1.0" encoding="utf-8"?>
<!-- Generator: Adobe Illustrator 19.0.0, SVG Export Plug-In . SVG Version: 6.00 Build 0)  -->
<svg version="1.1" id="图层_1" xmlns="http://www.w3.org/2000/svg" xmlns:xlink="http://www.w3.org/1999/xlink" x="0px" y="0px"
	 viewBox="0 0 20 20" style="enable-background:new 0 0 20 20;" xml:space="preserve">
<style type="text/css">
	.st0{fill-rule:evenodd;clip-rule:evenodd;fill:#040000;}
</style>
<g id="XMLID_2_">
	<g id="XMLID_14_">
		<path id="XMLID_15_" class="st0" d="M19.7,18.6l-2.7-2.7l0,0l-2.9-2.9L13,13c0,0,0,0,0,0c-1.2,1.2-2.9,1.9-4.7,1.9
			c-3.7,0-6.7-3-6.7-6.7c0-3.7,3-6.7,6.7-6.7c3.7,0,6.7,3,6.7,6.7c0,0.6-0.1,1.2-0.2,1.8l0.1,0.1c-0.1,0.1-0.2,0.3-0.2,0.6l0,0.1
			c0,0.5,0.4,0.8,0.8,0.8c0.2,0,0.4-0.1,0.6-0.3l0,0c0-0.1,0.1-0.2,0.1-0.2c0-0.1,0-0.1,0.1-0.2c0.3-0.8,0.5-1.7,0.5-2.7
			c0-4.6-3.7-8.3-8.3-8.3C3.7,0,0,3.7,0,8.3c0,4.6,3.7,8.3,8.3,8.3c2,0,3.8-0.7,5.3-1.9l5,5c0.3,0.3,0.9,0.3,1.2,0
			C20.1,19.4,20.1,18.9,19.7,18.6z"/>
	</g>
</g>
</svg>
