<?xml version="1.0" encoding="UTF-8"?>
<svg width="18px" height="18px" viewBox="0 0 18 18" version="1.1" xmlns="http://www.w3.org/2000/svg" xmlns:xlink="http://www.w3.org/1999/xlink">
    <!-- Generator: Sketch 47.1 (45422) - http://www.bohemiancoding.com/sketch -->
    <title>Group 17 Copy</title>
    <desc>Created with Sketch.</desc>
    <defs></defs>
    <g id="1010版调整" stroke="none" stroke-width="1" fill="none" fill-rule="evenodd">
        <g id="Group-17-Copy" fill-rule="nonzero" fill="#656565">
            <path d="M9,0.5 C4.30557963,0.5 0.5,4.30557963 0.5,9 C0.5,13.6944204 4.30557963,17.5 9,17.5 C13.6944204,17.5 17.5,13.6944204 17.5,9 C17.5,8.72385763 17.2761424,8.5 17,8.5 C16.7238576,8.5 16.5,8.72385763 16.5,9 C16.5,13.1421356 13.1421356,16.5 9,16.5 C4.85786438,16.5 1.5,13.1421356 1.5,9 C1.5,4.85786438 4.85786438,1.5 9,1.5 C9.27614237,1.5 9.5,1.27614237 9.5,1 C9.5,0.723857625 9.27614237,0.5 9,0.5 Z" id="Oval-4"></path>
            <path d="M8.90002403,9.61888688 L16.618774,2.55638688 C16.8225046,2.36997751 16.8365463,2.05370657 16.6501369,1.84997597 C16.4637275,1.64624537 16.1474566,1.63220375 15.943726,1.81861312 L8.22497597,8.88111312 C8.02124537,9.06752249 8.00720375,9.38379343 8.19361312,9.58752403 C8.38002249,9.79125463 8.69629343,9.80529625 8.90002403,9.61888688 Z" id="Path-5"></path>
            <path d="M15.9694373,5.37871081 C15.9694373,5.65485319 16.1932949,5.87871081 16.4694373,5.87871081 C16.7455796,5.87871081 16.9694373,5.65485319 16.9694373,5.37871081 L16.9694373,2 C16.9694373,1.72385763 16.7455796,1.5 16.4694373,1.5 L13,1.5 C12.7238576,1.5 12.5,1.72385763 12.5,2 C12.5,2.27614237 12.7238576,2.5 13,2.5 L15.9694373,2.5 L15.9694373,5.37871081 Z" id="Path-6"></path>
        </g>
    </g>
</svg>