<?xml version="1.0" encoding="UTF-8"?>
<svg width="18px" height="26px" viewBox="0 0 18 26" version="1.1" xmlns="http://www.w3.org/2000/svg" xmlns:xlink="http://www.w3.org/1999/xlink">
    <!-- Generator: Sketch 44.1 (41455) - http://www.bohemiancoding.com/sketch -->
    <title>Group 11</title>
    <desc>Created with Sketch.</desc>
    <defs></defs>
    <g id="Page-1" stroke="none" stroke-width="1" fill="none" fill-rule="evenodd">
        <g id="图标" transform="translate(-361.000000, -210.000000)" fill-rule="nonzero" fill="#979797">
            <g id="Group-11" transform="translate(361.000000, 210.000000)">
                <path d="M12,8.5 L16,8.5 C16.2761424,8.5 16.5,8.72385763 16.5,9 L16.5,24 C16.5,24.2761424 16.2761424,24.5 16,24.5 L2,24.5 C1.72385763,24.5 1.5,24.2761424 1.5,24 L1.5,9 C1.5,8.72385763 1.72385763,8.5 2,8.5 L6,8.5 C6.27614237,8.5 6.5,8.27614237 6.5,8 C6.5,7.72385763 6.27614237,7.5 6,7.5 L2,7.5 C1.17157288,7.5 0.5,8.17157288 0.5,9 L0.5,24 C0.5,24.8284271 1.17157288,25.5 2,25.5 L16,25.5 C16.8284271,25.5 17.5,24.8284271 17.5,24 L17.5,9 C17.5,8.17157288 16.8284271,7.5 16,7.5 L12,7.5 C11.7238576,7.5 11.5,7.72385763 11.5,8 C11.5,8.27614237 11.7238576,8.5 12,8.5 Z" id="Rectangle-15"></path>
                <path d="M12.3852314,5.34197056 C12.5740965,5.5434267 12.8905144,5.55363373 13.0919706,5.3647686 C13.2934267,5.17590347 13.3036337,4.85948557 13.1147686,4.65802944 L9.3647686,0.658029436 C9.16723181,0.447323521 8.83276819,0.447323521 8.6352314,0.658029436 L4.8852314,4.65802944 C4.69636627,4.85948557 4.7065733,5.17590347 4.90802944,5.3647686 C5.10948557,5.55363373 5.42590347,5.5434267 5.6147686,5.34197056 L9,1.73105707 L12.3852314,5.34197056 Z" id="Rectangle-16"></path>
                <path d="M8.5,1 L8.5,14 C8.5,14.2761424 8.72385763,14.5 9,14.5 C9.27614237,14.5 9.5,14.2761424 9.5,14 L9.5,1 C9.5,0.723857625 9.27614237,0.5 9,0.5 C8.72385763,0.5 8.5,0.723857625 8.5,1 Z" id="Path-7"></path>
            </g>
        </g>
    </g>
</svg>