<?xml version="1.0" encoding="utf-8"?>
<!-- Generator: Adobe Illustrator 15.0.0, SVG Export Plug-In . SVG Version: 6.00 Build 0)  -->
<!DOCTYPE svg PUBLIC "-//W3C//DTD SVG 1.1//EN" "http://www.w3.org/Graphics/SVG/1.1/DTD/svg11.dtd">
<svg version="1.1" id="图层_1" xmlns="http://www.w3.org/2000/svg" xmlns:xlink="http://www.w3.org/1999/xlink" x="0px" y="0px"
	 width="41.912px" height="46.59px" viewBox="0 0 41.912 46.59" enable-background="new 0 0 41.912 46.59" xml:space="preserve">
<path fill="#888888" d="M40.296,26.999c0.504-0.643,1.083-1.709,1.115-3.239c0.088-4.305-4.036-5.752-6.303-5.918h-6.92
	l-0.098-0.006c-0.28-0.607,0.156-1.279,0.15-1.279l-0.001,0.001c0.093-0.112,2.292-2.798,3.771-7.193
	c1.643-4.874-2.568-8.324-2.748-8.468l-0.245-0.145c-0.163-0.067-1.63-0.631-3.017,0.184c-1.06,0.624-1.701,1.831-1.907,3.591
	c-0.479,4.088-3.91,7.514-5.511,8.77c-0.225,0.175-0.406,0.317-0.528,0.423c-1.166,1.008-2.324,3.649-3.201,5.448
	c-0.586,1.201-2.196,1.135-3.023,1.847c-0.565,0.012-1.679,0.034-2.424,0.038c-0.894,0-1.114,0.042-2.102,0.042H2.713
	c-1.22,0-2.214,0.994-2.214,2.213v20.535c0,1.221,0.994,2.214,2.214,2.214c0,0,17.595,0.033,23.941,0.033
	c3.202,0,5.984-0.005,7.119-0.021c2.052-0.026,3.118-0.927,3.651-1.677c1.033-1.453,1.056-3.106,0.867-4.093
	c1.343-1.235,1.5-3.462,1.533-4.386c0.03-0.827-0.171-1.416-0.442-2.011c0.753-0.683,1.518-2.021,1.622-3.722
	C41.096,28.697,40.692,27.652,40.296,26.999 M38.394,26.115l-0.989,0.729l0.907,0.836c0.033,0.03,0.797,0.753,0.697,2.379
	c-0.114,1.856-1.374,2.648-1.386,2.654l-1.447,0.604l1.161,1.03c0.097,0.109,0.572,0.686,0.48,1.643
	c-0.079,0.817-0.378,2.481-1.248,3.146l-1.135,0.434l0.794,0.677c0.202,0.605,0.237,2.043-0.434,2.986
	c-0.391,0.55-1.061,0.823-2.047,0.836c-3.179,0.043-18.375,0.006-20.355,0.001c-1.016,0-1.949-0.011-3.892-0.011l-1.955-0.005
	c0,0-0.123,0.002-0.24,0.002H2.713c-0.118,0-0.214-0.096-0.214-0.214V23.308c0-0.117,0.096-0.213,0.214-0.213h4.592
	c0.117,0,0.213,0.005,0.213,0.005h1.955c1.056-0.007,2.752,0.006,2.752,0.006l0.344-0.007l0.265-0.315
	c0.116-0.094,2.833-0.723,3.818-2.739c0.941-1.932,1.91-4.119,2.71-4.811c0.105-0.091,0.261-0.212,0.455-0.364
	c1.643-1.287,5.688-5.195,6.264-10.11c0.127-1.081,0.446-1.805,0.925-2.094c0.409-0.246,0.905-0.16,1.13-0.101
	c0.592,0.535,3.046,2.999,1.98,6.161c-1.354,4.024-3.397,6.534-3.46,6.614c-0.509,0.712-1.113,2.302-0.153,3.742
	c0.436,0.654,1.189,0.82,1.748,0.76l6.78-0.003c0.182,0.014,4.45,0.396,4.38,3.88C39.377,25.352,38.423,26.092,38.394,26.115"/>
<path fill="none" stroke="#888888" stroke-miterlimit="10" d="M40.296,26.999c0.504-0.643,1.083-1.709,1.115-3.239
	c0.088-4.305-4.036-5.752-6.303-5.918h-6.92l-0.098-0.006c-0.28-0.607,0.156-1.279,0.15-1.279l-0.001,0.001
	c0.093-0.112,2.292-2.798,3.771-7.193c1.643-4.874-2.568-8.324-2.748-8.468l-0.245-0.145c-0.163-0.067-1.63-0.631-3.017,0.184
	c-1.06,0.624-1.701,1.831-1.907,3.591c-0.479,4.088-3.91,7.514-5.511,8.77c-0.225,0.175-0.406,0.317-0.528,0.423
	c-1.166,1.008-2.324,3.649-3.201,5.448c-0.586,1.201-2.196,1.135-3.023,1.847c-0.565,0.012-1.679,0.034-2.424,0.038
	c-0.894,0-1.114,0.042-2.102,0.042H2.713c-1.22,0-2.214,0.994-2.214,2.213v20.535c0,1.221,0.994,2.214,2.214,2.214
	c0,0,17.595,0.033,23.941,0.033c3.202,0,5.984-0.005,7.119-0.021c2.052-0.026,3.118-0.927,3.651-1.677
	c1.033-1.453,1.056-3.106,0.867-4.093c1.343-1.235,1.5-3.462,1.533-4.386c0.03-0.827-0.171-1.416-0.442-2.011
	c0.753-0.683,1.518-2.021,1.622-3.722C41.096,28.697,40.692,27.652,40.296,26.999z"/>
<path fill="none" stroke="#888888" stroke-miterlimit="10" d="M38.394,26.115l-0.989,0.729l0.907,0.836
	c0.033,0.03,0.797,0.753,0.697,2.379c-0.114,1.856-1.374,2.648-1.386,2.654l-1.447,0.604l1.161,1.03
	c0.097,0.109,0.572,0.686,0.48,1.643c-0.079,0.817-0.378,2.481-1.248,3.146l-1.135,0.434l0.794,0.677
	c0.202,0.605,0.237,2.043-0.434,2.986c-0.391,0.55-1.061,0.823-2.047,0.836c-3.179,0.043-18.375,0.006-20.355,0.001
	c-1.016,0-1.949-0.011-3.892-0.011l-1.955-0.005c0,0-0.123,0.002-0.24,0.002H2.713c-0.118,0-0.214-0.096-0.214-0.214V23.308
	c0-0.117,0.096-0.213,0.214-0.213h4.592c0.117,0,0.213,0.005,0.213,0.005h1.955c1.056-0.007,2.752,0.006,2.752,0.006l0.344-0.007
	l0.265-0.315c0.116-0.094,2.833-0.723,3.818-2.739c0.941-1.932,1.91-4.119,2.71-4.811c0.105-0.091,0.261-0.212,0.455-0.364
	c1.643-1.287,5.688-5.195,6.264-10.11c0.127-1.081,0.446-1.805,0.925-2.094c0.409-0.246,0.905-0.16,1.13-0.101
	c0.592,0.535,3.046,2.999,1.98,6.161c-1.354,4.024-3.397,6.534-3.46,6.614c-0.509,0.712-1.113,2.302-0.153,3.742
	c0.436,0.654,1.189,0.82,1.748,0.76l6.78-0.003c0.182,0.014,4.45,0.396,4.38,3.88C39.377,25.352,38.423,26.092,38.394,26.115z"/>
</svg>
