<?xml version="1.0" encoding="UTF-8" standalone="no"?>
<svg width="80px" height="80px" viewBox="0 0 80 80" version="1.1" xmlns="http://www.w3.org/2000/svg" xmlns:xlink="http://www.w3.org/1999/xlink">
    <!-- Generator: Sketch 39.1 (31720) - http://www.bohemiancoding.com/sketch -->
    <title>眼睛</title>
    <desc>Created with Sketch.</desc>
    <defs></defs>
    <g id="首页、正文页icon">
        <g id="眼睛" fill-rule="evenodd" clip-rule="evenodd">
            <g id="眼睛-(2)" transform="translate(3.000000, 17.000000)">
                <path d="M26.3916126,23.2240206 C26.3916126,17.2039642 31.1534667,12.3334808 37.0006501,12.3334808 C42.848671,12.3334808 47.6129102,17.2046814 47.6129102,23.2240206 C47.6129648,29.2444936 42.8507216,34.1144971 37.0006501,34.1144971 C31.1534749,34.1144971 26.3916126,29.2440222 26.3916126,23.2240206 Z M51.0795769,23.2240048 C51.0795769,15.3071097 44.7806966,8.86681415 37.0006501,8.86681415 C29.2211601,8.86681415 22.9249459,15.3066599 22.9249459,23.2240206 C22.9249459,31.1413291 29.221171,37.5811638 37.0006501,37.5811638 C44.7828901,37.5811638 51.0796487,31.1419218 51.0795769,23.2240048 Z" id="Path"></path>
                <path d="M0.604672282,23.2152318 C0.604672282,33.0074495 18.794068,45.844678 36.9694967,45.844678 C55.411414,45.844678 73.3344065,32.9754886 73.3344065,23.2152318 C73.3406821,13.2678533 55.6244447,0.61201444 36.9694967,0.61201444 C18.8338081,0.61201444 0.604672282,13.4420437 0.604672282,23.2152318 Z M69.8677402,23.2141383 C69.8677398,30.7669521 53.6969523,42.3780113 36.9694967,42.3780113 C20.5017757,42.3780113 4.07133895,30.7821742 4.07133895,23.2152318 C4.07133895,15.6699905 20.5404793,4.07868111 36.9694967,4.07868111 C53.9115192,4.07868111 69.8726188,15.480713 69.8677402,23.2141383 Z" id="Path"></path>
            </g>
        </g>
    </g>
</svg>